<svg width="41" height="41" viewBox="0 0 41 41" fill="none" xmlns="http://www.w3.org/2000/svg">
<path d="M40.4353 20.9688C40.4353 31.7789 31.6085 40.5474 20.7139 40.5474C9.81923 40.5474 0.99249 31.7789 0.99249 20.9688C0.99249 10.1586 9.81923 1.39013 20.7139 1.39013C31.6085 1.39013 40.4353 10.1586 40.4353 20.9688Z" fill="#014527" stroke="#1B442A" stroke-width="0.842767"/>
<path fill-rule="evenodd" clip-rule="evenodd" d="M23.0967 11.4435C23.9307 11.4406 24.7643 11.4851 25.5937 11.5766C25.7982 11.6048 25.951 11.7867 25.951 12.0018V14.9545C25.9508 15.1911 25.7668 15.3827 25.5399 15.3826L23.8635 15.3834C22.8663 15.3834 22.7057 15.7308 22.7057 16.562V18.2411H25.4299C25.4479 18.2411 25.4657 18.2423 25.4835 18.2447C25.7085 18.2753 25.8672 18.4903 25.8378 18.7249L25.4291 22.0254C25.4023 22.2389 25.2278 22.3986 25.0213 22.3987H22.7057V29.0151C22.7056 29.2517 22.5215 29.4434 22.2946 29.4432H19.024C18.7971 29.4431 18.6132 29.2512 18.6134 29.0147V22.3987H16.2902C16.0633 22.3985 15.8794 22.2067 15.8796 21.9701V18.6692C15.8797 18.4326 16.0637 18.241 16.2907 18.2411H18.6134V16.2347C18.6134 13.2791 20.3316 11.4435 23.0967 11.4435ZM23.8635 14.5267L25.1289 14.5259V12.3889C24.6753 12.3479 23.9262 12.301 23.0968 12.301C20.8045 12.301 19.4356 13.7717 19.4356 16.2351V18.6705C19.4355 18.9071 19.2515 19.0988 19.0246 19.0986H16.7018V21.5419H19.0251C19.2519 21.5421 19.4358 21.7339 19.4356 21.9705V28.5865H21.8836V21.97C21.8838 21.7335 22.0678 21.5418 22.2947 21.5419H24.66L24.9627 19.0986H22.2943C22.0673 19.0985 21.8835 18.9066 21.8836 18.6701V16.5624C21.8836 15.6885 22.0892 14.5267 23.8635 14.5267Z" fill="white"/>
</svg>
