<svg width="41" height="41" viewBox="0 0 41 41" fill="none" xmlns="http://www.w3.org/2000/svg">
<path d="M39.8642 20.9688C39.8642 31.7789 31.0374 40.5474 20.1428 40.5474C9.24812 40.5474 0.421384 31.7789 0.421384 20.9688C0.421384 10.1586 9.24812 1.39013 20.1428 1.39013C31.0374 1.39013 39.8642 10.1586 39.8642 20.9688Z" fill="#014527" stroke="#1B442A" stroke-width="0.842767"/>
<path fill-rule="evenodd" clip-rule="evenodd" d="M15.4781 12.9688H24.8074C26.681 12.9688 28.1998 14.4768 28.1998 16.3372V25.6003C28.1998 27.4607 26.681 28.9687 24.8074 28.9687H15.4781C13.6045 28.9687 12.0856 27.4607 12.0856 25.6003V16.3372C12.0856 14.4768 13.6045 12.9688 15.4781 12.9688Z" fill="#014527" stroke="white" stroke-width="0.842767"/>
<ellipse cx="20.1428" cy="20.9692" rx="3.81652" ry="3.78947" fill="#014527" stroke="white" stroke-width="0.842767"/>
<ellipse cx="25.2315" cy="15.9183" rx="0.848117" ry="0.842105" fill="#014527"/>
</svg>
