<svg width="40" height="41" viewBox="0 0 40 41" fill="none" xmlns="http://www.w3.org/2000/svg">
<path fill-rule="evenodd" clip-rule="evenodd" d="M27.2559 5.74101L5.58928 27.4077L4.41077 26.2292L26.0774 4.5625L27.2559 5.74101Z" fill="#F4B23E"/>
<path fill-rule="evenodd" clip-rule="evenodd" d="M23.294 3.70735C23.0028 3.41612 22.5138 3.41612 22.2225 3.70735L3.55587 22.374C3.26464 22.6653 3.26464 23.1543 3.55587 23.4455L16.7059 36.5955C16.9971 36.8867 17.4861 36.8867 17.7774 36.5955L36.444 17.9288C36.73 17.6429 36.742 17.167 36.4394 16.8528L23.294 3.70735ZM21.044 2.52884C21.9861 1.58674 23.5304 1.58674 24.4725 2.52884L37.6304 15.6867C38.5578 16.6392 38.5689 18.161 37.6225 19.1074L18.9559 37.774C18.0138 38.7161 16.4695 38.7161 15.5274 37.774L2.37735 24.624C1.43525 23.6819 1.43525 22.1376 2.37735 21.1955L21.044 2.52884Z" fill="#F4B23E"/>
<path fill-rule="evenodd" clip-rule="evenodd" d="M29.7583 9.90617L9.17495 30.6562L7.9917 29.4824L28.575 8.73242L29.7583 9.90617Z" fill="#F4B23E"/>
<path fill-rule="evenodd" clip-rule="evenodd" d="M21.4226 25.3964C21.748 25.7219 21.748 26.2495 21.4226 26.5749L16.4226 31.5749C16.0972 31.9004 15.5695 31.9004 15.2441 31.5749C14.9186 31.2495 14.9186 30.7219 15.2441 30.3964L20.2441 25.3964C20.5695 25.071 21.0972 25.071 21.4226 25.3964Z" fill="#F4B23E"/>
</svg>
