<svg width="34" height="27" viewBox="0 0 34 27" fill="none" xmlns="http://www.w3.org/2000/svg">
<path d="M19.5107 15.2287C18.3461 15.2287 17.3606 14.8081 16.5539 13.967C15.7473 13.1258 15.344 12.0981 15.344 10.8838C15.344 9.66941 15.7473 8.64166 16.5539 7.80053C17.3606 6.9594 18.3461 6.53884 19.5107 6.53884C20.6752 6.53884 21.6607 6.9594 22.4673 7.80053C23.2739 8.64166 23.6772 9.66941 23.6772 10.8838C23.6772 12.0981 23.2739 13.1258 22.4673 13.967C21.6607 14.8081 20.6752 15.2287 19.5107 15.2287ZM7.70511 21.0331C6.99378 21.0331 6.38147 20.7655 5.86819 20.2303C5.35494 19.6951 5.09832 19.0566 5.09832 18.3148V3.45277C5.09832 2.71097 5.35494 2.07245 5.86819 1.53724C6.38147 1.002 6.99378 0.734375 7.70511 0.734375H31.3162C32.0275 0.734375 32.6398 1.002 33.1531 1.53724C33.6663 2.07245 33.9229 2.71097 33.9229 3.45277V18.3148C33.9229 19.0566 33.6663 19.6951 33.1531 20.2303C32.6398 20.7655 32.0275 21.0331 31.3162 21.0331H7.70511ZM10.6111 18.8496H28.4102C28.4102 17.861 28.7437 17.0197 29.4106 16.3256C30.0776 15.6315 30.8837 15.2845 31.829 15.2845V6.48305C30.881 6.48305 30.0742 6.13531 29.4086 5.43982C28.743 4.74436 28.4102 3.90374 28.4102 2.91795H10.6111C10.6111 3.90652 10.2776 4.74784 9.61065 5.4419C8.94374 6.136 8.13761 6.48305 7.19228 6.48305V15.2845C8.14028 15.2845 8.94707 15.6322 9.61265 16.3277C10.2783 17.0232 10.6111 17.8638 10.6111 18.8496ZM28.955 26.2694H2.68382C1.97246 26.2694 1.36015 26.0017 0.846901 25.4665C0.333651 24.9313 0.0770264 24.2928 0.0770264 23.551V5.91494H2.17098V23.551C2.17098 23.6847 2.2244 23.8072 2.33123 23.9186C2.43807 24.0301 2.5556 24.0858 2.68382 24.0858H28.955V26.2694ZM7.70511 18.8496H7.19228V2.91795H7.70511C7.56622 2.91795 7.44603 2.97087 7.34453 3.07671C7.24303 3.18256 7.19228 3.30791 7.19228 3.45277V18.3148C7.19228 18.4596 7.24303 18.585 7.34453 18.6908C7.44603 18.7966 7.56622 18.8496 7.70511 18.8496Z" fill="#F4B23E"/>
</svg>
