<svg width="40" height="42" viewBox="0 0 40 42" fill="none" xmlns="http://www.w3.org/2000/svg">
<path d="M18.4762 36.2478C14.2169 36.2478 10.5727 34.7255 7.54363 31.6809C4.51454 28.6362 3 24.9734 3 20.6923C3 16.4112 4.51454 12.7483 7.54363 9.70369C10.5727 6.65904 14.2169 5.13672 18.4762 5.13672C20.3289 5.13672 22.1475 5.47089 23.9319 6.13923C25.7162 6.80753 27.3117 7.79624 28.7182 9.10537L26.9484 10.9188C25.7897 9.89687 24.4786 9.11199 23.0152 8.56419C21.5518 8.01642 20.0388 7.74254 18.4762 7.74254C14.9206 7.74254 11.8844 9.00739 9.36766 11.5371C6.85091 14.0667 5.59253 17.1185 5.59253 20.6923C5.59253 24.2661 6.85091 27.3178 9.36766 29.8475C11.8844 32.3772 14.9206 33.642 18.4762 33.642C20.0388 33.642 21.5518 33.3717 23.0152 32.831C24.4786 32.2903 25.7897 31.5134 26.9484 30.5003L28.7182 32.2792C27.3117 33.5883 25.7162 34.577 23.9319 35.2453C22.1475 35.9137 20.3289 36.2478 18.4762 36.2478ZM30.6349 28.0392L28.7884 26.1832L33.0874 21.8622H16.6084V19.4106H33.0874L28.7884 15.1029L30.6349 13.2336L38 20.6364L30.6349 28.0392Z" fill="#F4B23E"/>
</svg>
