<svg width="40" height="43" viewBox="0 0 40 43" fill="none" xmlns="http://www.w3.org/2000/svg">
<path d="M20 38.4238C17.1152 38.4238 14.3763 37.6382 11.7833 36.067C9.19038 34.4958 7.12119 32.6155 5.57573 30.4261V35.3329H3V26.0602H12.2727V28.6359H7.46891C8.75679 30.5763 10.5491 32.2635 12.8458 33.6973C15.1425 35.1312 17.5273 35.8481 20 35.8481C21.9833 35.8481 23.8529 35.4682 25.6087 34.7083C27.3645 33.9485 28.8928 32.9182 30.1936 31.6174C31.4943 30.3167 32.5246 28.7884 33.2845 27.0326C34.0443 25.2767 34.4243 23.4072 34.4243 21.4238H37C37 23.7678 36.5557 25.97 35.667 28.0306C34.7784 30.0913 33.5614 31.8943 32.0159 33.4397C30.4705 34.9852 28.6674 36.2022 26.6068 37.0909C24.5462 37.9795 22.3439 38.4238 20 38.4238ZM18.7894 32.4223V30.3617C17.6131 30.0612 16.6365 29.5568 15.8595 28.8485C15.0825 28.1401 14.4535 27.1849 13.9727 25.9829L16.1364 25.2102C16.4455 26.2147 16.9713 26.9939 17.714 27.5477C18.4567 28.1015 19.3046 28.3784 20.2576 28.3784C21.2278 28.3784 22.0413 28.1444 22.6981 27.6765C23.3549 27.2086 23.6834 26.5582 23.6834 25.7254C23.6834 24.9097 23.3635 24.2314 22.7239 23.6905C22.0842 23.1496 20.9187 22.54 19.2273 21.8617C17.6904 21.2521 16.5463 20.5738 15.7951 19.8269C15.0438 19.0799 14.6682 18.0839 14.6682 16.839C14.6682 15.7314 15.0481 14.7676 15.808 13.9477C16.5678 13.1278 17.5874 12.6147 18.8667 12.4087V10.4511H21.1849V12.4087C22.1465 12.5031 22.9943 12.8337 23.7284 13.4003C24.4625 13.967 25.0227 14.7011 25.4091 15.6026L23.3485 16.5299C23.0222 15.8516 22.5929 15.3257 22.0606 14.9522C21.5283 14.5788 20.8672 14.392 20.0773 14.392C19.1071 14.392 18.3494 14.6109 17.8042 15.0488C17.259 15.4867 16.9864 16.0834 16.9864 16.839C16.9864 17.6117 17.3083 18.2256 17.9523 18.6806C18.5962 19.1357 19.6737 19.6551 21.1849 20.239C22.9879 20.9602 24.2414 21.7458 24.9455 22.5958C25.6495 23.4458 26.0015 24.489 26.0015 25.7254C26.0015 26.4036 25.8813 27.0175 25.6409 27.567C25.4005 28.1165 25.0678 28.5866 24.6428 28.9772C24.2178 29.3679 23.7048 29.6856 23.1038 29.9303C22.5028 30.175 21.8374 30.3445 21.1076 30.439V32.4223H18.7894ZM3 21.4238C3 19.0799 3.44432 16.8776 4.33295 14.817C5.22159 12.7564 6.43864 10.9534 7.98409 9.40792C9.52955 7.86246 11.3326 6.64542 13.3932 5.75678C15.4538 4.86815 17.6561 4.42383 20 4.42383C22.8848 4.42383 25.6237 5.20943 28.2167 6.78065C30.8096 8.35188 32.8788 10.2322 34.4243 12.4216V7.51474H37V16.7875H27.7273V14.2117H32.5311C31.2432 12.2713 29.4552 10.5842 27.167 9.15033C24.8789 7.71648 22.4899 6.99956 20 6.99956C18.0167 6.99956 16.1471 7.37948 14.3913 8.13933C12.6355 8.89918 11.1072 9.92948 9.80641 11.2302C8.50566 12.531 7.47535 14.0593 6.7155 15.8151C5.95566 17.5709 5.57573 19.4405 5.57573 21.4238H3Z" fill="#F4B23E"/>
</svg>
