<svg width="40" height="43" viewBox="0 0 40 43" fill="none" xmlns="http://www.w3.org/2000/svg">
<path d="M10.1068 39.9528C9.39281 39.9528 8.77983 39.6859 8.26792 39.1521C7.75597 38.6182 7.5 37.979 7.5 37.2345V6.17347C7.5 5.42889 7.75597 4.78969 8.26792 4.25586C8.77983 3.72201 9.39281 3.45508 10.1068 3.45508H26.5598C27.2738 3.45508 27.8868 3.72201 28.3987 4.25586C28.9106 4.78969 29.1666 5.42889 29.1666 6.17347V12.2297H27.0726V9.78307H9.59396V33.6249H27.0726V31.1782H29.1666V37.2345C29.1666 37.979 28.9106 38.6182 28.3987 39.1521C27.8868 39.686 27.2738 39.9529 26.5598 39.9529H10.1068V39.9528ZM9.59396 35.8084V37.2345C9.59396 37.3682 9.64739 37.4907 9.75425 37.6021C9.86108 37.7136 9.97861 37.7693 10.1068 37.7693H26.5598C26.688 37.7693 26.8055 37.7136 26.9123 37.6021C27.0192 37.4907 27.0726 37.3682 27.0726 37.2345V35.8084H9.59396ZM24.9166 28.0543L18.4103 21.2695L19.9017 19.732L24.9166 24.9616L34.6303 14.8322L36.1217 16.3697L24.9166 28.0543ZM9.59396 7.5995H27.0726V6.17347C27.0726 6.03977 27.0192 5.91721 26.9123 5.8058C26.8055 5.69437 26.688 5.63865 26.5598 5.63865H10.1068C9.97861 5.63865 9.86108 5.69437 9.75425 5.8058C9.64739 5.91721 9.59396 6.03977 9.59396 6.17347V7.5995Z" fill="#F4B23E"/>
</svg>
